<svg xmlns="http://www.w3.org/2000/svg" viewBox="0 0 103 54.03"><path class="logo-path" d="M16.18 15.76H13l-.56 1.47H9.55l3.67-8.4H16l3.67 8.4h-2.92zm-.78-2l-.81-2.12-.82 2.12zm6.13-4.9h4.13c2.81 0 4.74 1.6 4.74 4.2s-1.93 4.2-4.74 4.2h-4.13zm4 6.19a1.85 1.85 0 0 0 2-2 1.85 1.85 0 0 0-2-2h-1.17v4zm16-6.19L38 17.23h-2.83l-3.55-8.4h3.05l2 4.91 2-4.91zm7.1 6.93h-3.22l-.57 1.47H42l3.67-8.4h2.79l3.67 8.4h-2.97zm-.78-2L47 11.61l-.81 2.12zm14.39-4.9v8.4h-2.35l-3.19-3.88v3.82h-2.76v-8.4h2.33l3.19 3.82V8.83zm2.4 4.11a4.38 4.38 0 0 1 4.68-4.39 4.55 4.55 0 0 1 3.77 1.68l-1.79 1.62a2.27 2.27 0 0 0-1.84-1 1.91 1.91 0 0 0-2 2.1 1.91 1.91 0 0 0 2 2.1 2.26 2.26 0 0 0 1.84-1l1.79 1.6a4.55 4.55 0 0 1-3.77 1.68A4.38 4.38 0 0 1 64.64 13zm17.64 2.06v2.14h-7V8.83h6.82V11h-4v1h3.55v2h-3.57v1.1zm2.49-6.26h4.13c2.81 0 4.74 1.6 4.74 4.2s-1.93 4.2-4.74 4.2h-4.13zm4 6.19a1.85 1.85 0 0 0 2-2 1.85 1.85 0 0 0-2-2H87.6v4zm-69.34 7.84l-3.55 8.4H13.1l-3.55-8.4h3l2 4.91 2-4.91zm11.88 6.26v2.14h-7v-8.4h6.83V25h-4v1h3.55v2h-3.57v1.1zM38.85 25H36.4v-2.2h7.74V25h-2.46v6.2h-2.83zm12.59 0H49v-2.2h7.75V25h-2.48v6.2h-2.83zm10.65-2.2h2.83v8.4h-2.83zm17.09 0v8.4h-2.33l-3.19-3.82v3.82h-2.75v-8.4h2.32l3.19 3.82v-3.79zm11.55 4h2.46v3.55a6.77 6.77 0 0 1-3.66 1.07A4.38 4.38 0 0 1 84.84 27c0-2.58 2-4.39 4.75-4.39a4.8 4.8 0 0 1 3.84 1.62l-1.82 1.59a2.38 2.38 0 0 0-1.88-.92 1.92 1.92 0 0 0-2 2.1 1.94 1.94 0 0 0 2 2.1 2.57 2.57 0 0 0 1-.21zM10.94 44.56l.91-2.07a5.71 5.71 0 0 0 2.77.77c.8 0 1.09-.17 1.09-.46 0-1-4.64-.2-4.64-3.33 0-1.56 1.3-2.83 3.91-2.83a6.66 6.66 0 0 1 3.16.73l-.85 2.05A5.19 5.19 0 0 0 15 38.8c-.82 0-1.09.24-1.09.53 0 1 4.64.16 4.64 3.26 0 1.53-1.3 2.83-3.91 2.83a7.54 7.54 0 0 1-3.7-.86zM20.11 41a4.44 4.44 0 0 1 4.74-4.39 4.4 4.4 0 1 1 0 8.78A4.44 4.44 0 0 1 20.11 41zm6.63 0a1.9 1.9 0 1 0-1.89 2.1 1.91 1.91 0 0 0 1.89-2.1zm5-4.2h2.83V43h3.79v2.2h-6.63zm8.38 4.62v-4.59h2.83v4.54c0 1.28.49 1.76 1.28 1.76s1.28-.48 1.28-1.76v-4.54h2.79v4.62c0 2.52-1.52 4-4.09 4s-4.1-1.45-4.1-4zM52.39 39h-2.46v-2.2h7.75V39h-2.46v6.2h-2.83zm7.13-2.2h2.83v8.4h-2.83zm5 4.2a4.75 4.75 0 1 1 4.74 4.39A4.43 4.43 0 0 1 64.49 41zm6.62 0a1.9 1.9 0 1 0-1.88 2.1 1.91 1.91 0 0 0 1.85-2.1zm13.27-4.2v8.4h-2.36l-3.19-3.82v3.82h-2.75v-8.4h2.32l3.19 3.82v-3.79zm2 7.73l.91-2.07a5.74 5.74 0 0 0 2.77.77c.81 0 1.09-.17 1.09-.46 0-1-4.64-.2-4.64-3.33 0-1.56 1.31-2.83 3.91-2.83a6.7 6.7 0 0 1 3.17.73l-.85 2.05a5.19 5.19 0 0 0-2.34-.62c-.83 0-1.09.24-1.09.53 0 1 4.64.16 4.64 3.26 0 1.53-1.31 2.83-3.91 2.83a7.58 7.58 0 0 1-3.74-.83zM103 54H0V0h103zM4 50h95V4H4z"/></svg>