<svg xmlns="http://www.w3.org/2000/svg" viewBox="0 0 130.43 300"><path class="logo-mark-path" d="M53.54 79h20.81L78 88.5h19.11L73.17 33.75H55L31.09 88.5h18.78zM64 51.9l5.31 13.77H58.63zm24.78 195.48c0 10-8.53 18.46-25.5 18.46-9.15 0-18.38-2.27-23.86-5.63l5.95-13.45a37.57 37.57 0 0 0 18.07 5c5.24 0 7.11-1.09 7.11-3 0-6.88-30.27-1.33-30.27-21.74 0-10.17 8.53-18.46 25.5-18.46 7.36 0 14.94 1.56 20.65 4.77l-5.55 13.37a33.76 33.76 0 0 0-15.25-4.07c-5.4 0-7.12 1.57-7.12 3.45 0 6.6 30.27 1.12 30.27 21.3zm-10.6-125.59h18.15l-23.16 54.76H55l-23.13-54.76h19.87l13.06 32zM0 0v300h130.43V0zm117.39 287H13V13h104.39z"/></svg>