<svg xmlns="http://www.w3.org/2000/svg" viewBox="0 0 300 300"><style>.cls-1{fill:#001849}</style><path class="cls-1" d="M97.56 187.43H50.63L42.34 209H0L54 85.46h40.91L148.9 209h-43.05zm-11.47-30l-12-31-12 31.05zm145.63-34.66c0-4.12 3.89-7.56 16.06-7.56 10.76 0 22.23 2.92 34.4 8.93l12.53-29.36c-12.88-7-30-10.48-46.58-10.48-2.67 0-5.22.11-7.69.29-.09.3-.23.58-.34.87h.1L210.8 155c20.13 9.41 48.09 7.91 48.09 17.59 0 4.12-4.23 6.52-16 6.52a86.73 86.73 0 0 1-38.17-9.62l-12.67 30c12.55 6.38 31.59 10.56 50.49 10.56 38.28 0 57.51-18.55 57.51-40.53-.05-44.35-68.33-32.33-68.33-46.75zM199.37 85.4h-59.78v.06l29.46 72.15 30.17-72.15h.09a.13.13 0 0 1 .06-.06z"/></svg>