<svg xmlns="http://www.w3.org/2000/svg" viewBox="0 0 505.25 171.25"><path class="cls-1" d="M98.09 103.13H51.17l-8.3 21.52H.53l54-123.49h40.92l54 123.49h-43.07zm-11.46-30l-12-31-12 31.05zm145.63-34.67c0-4.12 3.88-7.55 16.05-7.55 10.76 0 22.23 2.92 34.4 8.93l12.53-29.37C282.36 3.43 265.25 0 248.66 0q-4 0-7.69.29a9.21 9.21 0 0 1-.34.87h.1l-29.4 69.51c20.14 9.41 48.1 7.92 48.1 17.59 0 4.12-4.24 6.53-16.06 6.53a86.64 86.64 0 0 1-38.17-9.63l-12.67 30c12.56 6.37 31.59 10.56 50.49 10.56 38.28 0 57.51-18.55 57.51-40.53 0-44.32-68.27-32.3-68.27-46.73zM199.9 1.1h-59.78v.06l29.46 72.15L199.8 1.16h.09s.01-.04.01-.06zM15.48 167.39H8l-1.32 3.42H0l8.57-19.6h6.49l8.57 19.6H16.8zm-1.82-4.76l-1.9-4.93-1.9 4.93zm11.04-11.42h9.66c6.55 0 11.06 3.72 11.06 9.8s-4.51 9.8-11.06 9.8H24.7zm9.38 14.44a4.65 4.65 0 1 0 0-9.29H31.3v9.29zm33.99-14.44l-8.29 19.6h-6.5L45 151.21h7.11l4.67 11.45 4.79-11.45zm13.3 16.18h-7.45l-1.32 3.42h-6.72l8.57-19.6H81l8.57 19.6h-6.89zm-1.82-4.76l-1.91-4.93-1.9 4.93zm30.35-11.42v19.6h-5.43L97 161.9v8.91h-6.42v-19.6H96l7.45 8.9v-8.9zm24.1 0l-8.29 19.6h-6.5l-8.21-19.6h7.12l4.67 11.45 4.79-11.45zm17 14.61v5h-16.32v-19.6h15.93v5h-9.44v2.3h8.29v4.76h-8.29v2.57zm2.52-14.61h9.66c6.55 0 11.06 3.72 11.06 9.8s-4.51 9.8-11.06 9.8h-9.66zm9.38 14.44a4.65 4.65 0 1 0 0-9.29h-2.77v9.29zm43.1-14.44l-8.28 19.6h-6.5l-8.29-19.6H190l4.68 11.45 4.79-11.45zm16.93 14.61v5h-16.29v-19.6h15.93v5h-9.44v2.3h8.29v4.76h-8.29v2.57zm6.81-9.49H224v-5.12h18.09v5.12h-5.74v14.48h-6.61zm18.59 0h-5.74v-5.12h18.09v5.12h-5.74v14.48h-6.61zm14.05-5.12H269v19.6h-6.61zm29.12 0v19.6h-5.43l-7.45-8.91v8.91h-6.44v-19.6h5.44l7.44 8.9v-8.9zm16.16 9.26h5.74v8.29a15.79 15.79 0 0 1-8.54 2.49c-6.33 0-10.95-4.22-10.95-10.24s4.62-10.25 11.09-10.25c3.86 0 7 1.34 9 3.78l-4.23 3.72a5.57 5.57 0 0 0-4.39-2.15c-2.92 0-4.76 1.87-4.76 4.9s1.84 4.9 4.67 4.9a6.1 6.1 0 0 0 2.41-.48zm15.74 8.77l2.12-4.82a13.47 13.47 0 0 0 6.47 1.79c1.88 0 2.55-.39 2.55-1.06 0-2.46-10.84-.48-10.84-7.78 0-3.64 3.05-6.61 9.13-6.61a15.52 15.52 0 0 1 7.39 1.71l-2 4.78a12.13 12.13 0 0 0-5.46-1.45c-1.94 0-2.55.56-2.55 1.23 0 2.35 10.83.39 10.83 7.62 0 3.58-3.05 6.6-9.12 6.6a17.6 17.6 0 0 1-8.52-2.01zm18.84-8.24c0-5.94 4.68-10.25 11.06-10.25s11.06 4.31 11.06 10.25-4.68 10.24-11.06 10.24-11.06-4.3-11.06-10.24zm15.45 0c0-3.06-2-4.9-4.39-4.9s-4.4 1.84-4.4 4.9 2 4.9 4.4 4.9 4.39-1.84 4.39-4.9zm9.08-9.79h6.61v14.47h8.84v5.13h-15.45zM383.73 162v-10.79h6.61v10.58c0 3 1.15 4.12 3 4.12s3-1.12 3-4.12v-10.58h6.5V162c0 5.88-3.53 9.26-9.55 9.26s-9.56-3.39-9.56-9.26zm26.1-5.67h-5.74v-5.12h18.09v5.12h-5.74v14.48h-6.61zm14.06-5.12h6.6v19.6h-6.6zm9.01 9.79c0-5.94 4.68-10.25 11.06-10.25S455 155.07 455 161s-4.67 10.24-11.06 10.24-11.04-4.3-11.04-10.24zm15.46 0c0-3.06-2-4.9-4.4-4.9s-4.39 1.84-4.39 4.9 2 4.9 4.39 4.9 4.4-1.84 4.4-4.9zm28.39-9.79v19.6h-5.43l-7.45-8.91v8.91h-6.44v-19.6h5.43l7.45 8.9v-8.9zm1.96 18.03l2.13-4.82a13.47 13.47 0 0 0 6.47 1.79c1.87 0 2.54-.39 2.54-1.06 0-2.46-10.83-.48-10.83-7.78 0-3.64 3.05-6.61 9.13-6.61a15.55 15.55 0 0 1 7.39 1.71l-2 4.78a12.07 12.07 0 0 0-5.46-1.45c-1.93 0-2.55.56-2.55 1.23 0 2.35 10.84.39 10.84 7.62 0 3.58-3.05 6.6-9.13 6.6a17.6 17.6 0 0 1-8.53-2.01zm19.15-1.79a3.7 3.7 0 0 1 7.39 0 3.7 3.7 0 0 1-7.39 0z"/></svg>