<svg id="logo-mark" xmlns="http://www.w3.org/2000/svg" viewBox="0 0 130.43 300" preserveAspectRation="xMaxYMax">
    <path class="logo-mark-path" d="M53.54,79H74.35L78,88.5H97.11L73.17,33.75H55L31.09,88.5H49.87ZM64,51.9l5.31,13.77H58.63ZM88.78,247.38c0,10-8.53,18.46-25.5,18.46-9.15,0-18.38-2.27-23.86-5.63l5.95-13.45a37.57,37.57,0,0,0,18.07,5c5.24,0,7.11-1.09,7.11-3,0-6.88-30.27-1.33-30.27-21.74,0-10.17,8.53-18.46,25.5-18.46,7.36,0,14.94,1.56,20.65,4.77l-5.55,13.37a33.76,33.76,0,0,0-15.25-4.07c-5.4,0-7.12,1.57-7.12,3.45C58.51,232.68,88.78,227.2,88.78,247.38ZM78.18,121.79H96.33L73.17,176.55H55L31.87,121.79H51.74l13.06,32ZM0,0V300H130.43V0ZM117.39,287H13V13H117.39Z"/>
</svg>