<svg xmlns="http://www.w3.org/2000/svg" viewBox="0 0 300 300">
    <style>.cls-1{fill:#001849;}</style>
    <path class="cls-1" d="M97.56,187.43H50.63L42.34,209H0L54,85.46H94.91L148.9,209H105.85Zm-11.47-30-12-31-12,31.05Z"/>
    <path class="cls-1" d="M231.72,122.77c0-4.12,3.89-7.56,16.06-7.56,10.76,0,22.23,2.92,34.4,8.93l12.53-29.36c-12.88-7-30-10.48-46.58-10.48-2.67,0-5.22.11-7.69.29-.09.3-.23.58-.34.87h.1L210.8,155c20.13,9.41,48.09,7.91,48.09,17.59,0,4.12-4.23,6.52-16,6.52a86.73,86.73,0,0,1-38.17-9.62l-12.67,30c12.55,6.38,31.59,10.56,50.49,10.56,38.28,0,57.51-18.55,57.51-40.53C300,125.17,231.72,137.19,231.72,122.77Z"/><path class="cls-1" d="M199.37,85.4H139.59v.06h0l29.46,72.15,30.17-72.15h.09A.13.13,0,0,1,199.37,85.4Z"/>
</svg>